# xmcd CD database file
#
# Track frame offsets:
#	150
#	19026
#	40057
#	61143
#	83758
#	102190
#	122207
#	142941
#	162125
#	189752
#	205934
#	229218
#
# Disc length: 3264 seconds
#
# Revision: 1
# Processed by: cddbd v1.5.2PL0 Copyright (c) Steve Scherf et al.
# Submitted via: CDex 1.70beta2
#
DISCID=900cbe0c
DTITLE=Erin Boheme - What Love Is
DYEAR=2006
DGENRE=Jazz
TTITLE0=Something You Ain't
TTITLE1=Let's Make the Most of s Beautiful Thing
TTITLE2=Teach me Tonight
TTITLE3=What Love Is
TTITLE4=Someone to Love
TTITLE5=Make You Happy
TTITLE6=Give me One Reason
TTITLE7=One Night with Frank
TTITLE8=Anything
TTITLE9=Change the World
TTITLE10=Let's Do It
TTITLE11=I Love Being Here with You
EXTD=YEAR: 2006
EXTT0=
EXTT1=
EXTT2=
EXTT3=
EXTT4=
EXTT5=
EXTT6=
EXTT7=
EXTT8=
EXTT9=
EXTT10=
EXTT11=
PLAYORDER=
